# xmcd
# 
# Track frame offsets:
#     150
#     21023
#     40860
#     60860
#     80848
#     103140
#     122129
#     138705
#     155118
#     174904
#     191868
#     212215
# 
# Disc length: 3121
# 
# Revision: 0
# Processed by: cddbd v1.5.2PL0 Copyright (c) Steve Scherf et al.
# Submitted via: fre:ac v1.0.31
# 
DISCID=ac0c2f0c
DTITLE=Kate Rusby - Philosophers, Poets and Kings
DYEAR=2019
DGENRE=Folk
TTITLE0=Jenny
TTITLE1=Bogey's Bonnie Belle
TTITLE2=Philosophers, Poets and Kings
TTITLE3=Until Morning
TTITLE4=Crazy Man Michael
TTITLE5=Don't Go Away
TTITLE6=The Squire and the Parson
TTITLE7=The Wanderer
TTITLE8=Farmer's Toast
TTITLE9=As the Lights Go Out
TTITLE10=Jenny (Ordinary Remix)
TTITLE11=Halt The Wagons
EXTD=
EXTT0=
EXTT1=
EXTT2=
EXTT3=
EXTT4=
EXTT5=
EXTT6=
EXTT7=
EXTT8=
EXTT9=
EXTT10=
EXTT11=
PLAYORDER=
